<?xml version="1.0" encoding="utf-8"?>
<svg version="1.1" xmlns:xlink="http://www.w3.org/1999/xlink" width="38px" height="38px" xmlns="http://www.w3.org/2000/svg">
  <g transform="matrix(1 0 0 1 -298 -257 )">
    <path d="M 317 257  C 327.64 257  336 265.36  336 276  C 336 286.64  327.64 295  317 295  C 306.36 295  298 286.64  298 276  C 298 265.36  306.36 257  317 257  Z " fill-rule="nonzero" fill="#ffffff" stroke="none" />
    <path d="M 317 257.5  C 327.36 257.5  335.5 265.64  335.5 276  C 335.5 286.36  327.36 294.5  317 294.5  C 306.64 294.5  298.5 286.36  298.5 276  C 298.5 265.64  306.64 257.5  317 257.5  Z " stroke-width="1" stroke="#797979" fill="none" />
  </g>
</svg>