<?xml version="1.0" encoding="utf-8"?>
<svg version="1.1" xmlns:xlink="http://www.w3.org/1999/xlink" width="95px" height="95px" xmlns="http://www.w3.org/2000/svg">
  <g transform="matrix(1 0 0 1 -165 -214 )">
    <path d="M 212.5 214  C 239.1 214  260 234.9  260 261.5  C 260 288.1  239.1 309  212.5 309  C 185.9 309  165 288.1  165 261.5  C 165 234.9  185.9 214  212.5 214  Z " fill-rule="nonzero" fill="#ffffff" stroke="none" />
    <path d="M 212.5 214.5  C 238.82 214.5  259.5 235.18  259.5 261.5  C 259.5 287.82  238.82 308.5  212.5 308.5  C 186.18 308.5  165.5 287.82  165.5 261.5  C 165.5 235.18  186.18 214.5  212.5 214.5  Z " stroke-width="1" stroke="#797979" fill="none" />
  </g>
</svg>